<mxfile host="app.diagrams.net" modified="2024-04-01T03:27:33.633Z" agent="Mozilla/5.0 (Macintosh; Intel Mac OS X 10_15_7) AppleWebKit/605.1.15 (KHTML, like Gecko) Version/17.4 Safari/605.1.15" etag="cgwkzckISQjFJpni7yYj" version="24.1.0" type="device">
  <diagram name="Page-1" id="QNVAXEFG_coX6fo7xSKH">
    <mxGraphModel dx="1434" dy="827" grid="1" gridSize="10" guides="1" tooltips="1" connect="1" arrows="1" fold="1" page="1" pageScale="1" pageWidth="827" pageHeight="1169" math="0" shadow="0">
      <root>
        <mxCell id="0" />
        <mxCell id="1" parent="0" />
        <mxCell id="DXjjxYE0g-5OhmQiskfD-1" value="&lt;font style=&quot;font-size: 24px;&quot;&gt;&lt;span style=&quot;caret-color: rgb(204, 0, 0);&quot;&gt;&lt;font color=&quot;#9933ff&quot;&gt;&amp;nbsp; &amp;nbsp; &amp;nbsp; &amp;nbsp; &amp;nbsp; &amp;nbsp; &amp;nbsp; struct&lt;/font&gt;&lt;/span&gt; &amp;nbsp; &lt;font color=&quot;#0000ff&quot;&gt;student&amp;nbsp;&lt;/font&gt;&amp;nbsp; &amp;nbsp; &amp;nbsp;&lt;/font&gt;&lt;div style=&quot;font-size: 24px;&quot;&gt;&lt;font style=&quot;font-size: 24px;&quot;&gt;&amp;nbsp; &amp;nbsp; &amp;nbsp; &amp;nbsp; &amp;nbsp; &amp;nbsp; &amp;nbsp;{ &amp;nbsp;&lt;/font&gt;&lt;div&gt;&lt;div&gt;&lt;font style=&quot;font-size: 24px;&quot;&gt;&amp;nbsp; &amp;nbsp; &amp;nbsp; &amp;nbsp; &amp;nbsp; &amp;nbsp; &amp;nbsp; &amp;nbsp; &amp;nbsp; &amp;nbsp;char a;&lt;/font&gt;&lt;/div&gt;&lt;div&gt;&lt;font style=&quot;font-size: 24px;&quot;&gt;&amp;nbsp; &amp;nbsp; &amp;nbsp; &amp;nbsp; &amp;nbsp; &amp;nbsp; &amp;nbsp; &amp;nbsp; &amp;nbsp; &amp;nbsp;int &amp;nbsp; &amp;nbsp;b; &amp;nbsp; &amp;nbsp;&amp;nbsp;&lt;/font&gt;&lt;/div&gt;&lt;div&gt;&lt;font style=&quot;font-size: 24px;&quot;&gt;&amp;nbsp; &amp;nbsp; &amp;nbsp; &amp;nbsp; &amp;nbsp; &amp;nbsp; &amp;nbsp;};&lt;/font&gt;&lt;/div&gt;&lt;/div&gt;&lt;/div&gt;" style="text;html=1;align=left;verticalAlign=middle;whiteSpace=wrap;rounded=0;" vertex="1" parent="1">
          <mxGeometry x="70" y="380" width="350" height="211.25" as="geometry" />
        </mxCell>
        <mxCell id="DXjjxYE0g-5OhmQiskfD-4" value="" style="strokeWidth=2;html=1;shape=mxgraph.flowchart.annotation_2;align=left;labelPosition=right;pointerEvents=1;rotation=90;fillColor=#fa6800;fontColor=#CC99FF;strokeColor=#C73500;" vertex="1" parent="1">
          <mxGeometry x="165" y="360" width="50" height="70" as="geometry" />
        </mxCell>
        <mxCell id="DXjjxYE0g-5OhmQiskfD-5" value="" style="strokeWidth=2;html=1;shape=mxgraph.flowchart.annotation_2;align=left;labelPosition=right;pointerEvents=1;rotation=90;fillColor=#fa6800;fontColor=#CC99FF;strokeColor=#C73500;" vertex="1" parent="1">
          <mxGeometry x="260" y="346.25" width="50" height="97.5" as="geometry" />
        </mxCell>
        <mxCell id="DXjjxYE0g-5OhmQiskfD-11" value="" style="strokeWidth=2;html=1;shape=mxgraph.flowchart.annotation_2;align=left;labelPosition=right;pointerEvents=1;rotation=-180;fillColor=#fa6800;fontColor=#CC99FF;strokeColor=#C73500;" vertex="1" parent="1">
          <mxGeometry x="320" y="470" width="50" height="70" as="geometry" />
        </mxCell>
        <mxCell id="DXjjxYE0g-5OhmQiskfD-15" value="Keyword" style="text;html=1;align=center;verticalAlign=middle;whiteSpace=wrap;rounded=0;fontSize=13;fontStyle=1" vertex="1" parent="1">
          <mxGeometry x="160" y="330" width="60" height="30" as="geometry" />
        </mxCell>
        <mxCell id="DXjjxYE0g-5OhmQiskfD-16" value="Structure tag" style="text;html=1;align=center;verticalAlign=middle;whiteSpace=wrap;rounded=0;fontSize=13;fontStyle=1" vertex="1" parent="1">
          <mxGeometry x="250" y="330" width="90" height="30" as="geometry" />
        </mxCell>
        <mxCell id="DXjjxYE0g-5OhmQiskfD-21" value="Members" style="text;html=1;align=center;verticalAlign=middle;whiteSpace=wrap;rounded=0;fontSize=13;fontStyle=1" vertex="1" parent="1">
          <mxGeometry x="384" y="490" width="60" height="30" as="geometry" />
        </mxCell>
        <mxCell id="DXjjxYE0g-5OhmQiskfD-36" value="&lt;span style=&quot;font-size: 11px;&quot;&gt;00000000&lt;/span&gt;" style="rounded=0;whiteSpace=wrap;html=1;fillColor=#f8cecc;strokeColor=#b85450;fontStyle=1;fontSize=11;" vertex="1" parent="1">
          <mxGeometry x="164" y="640" width="60" height="60" as="geometry" />
        </mxCell>
        <mxCell id="DXjjxYE0g-5OhmQiskfD-37" value="&lt;span style=&quot;font-size: 11px;&quot;&gt;00000000&lt;/span&gt;" style="rounded=0;whiteSpace=wrap;html=1;fillColor=#f8cecc;strokeColor=#b85450;fontStyle=1;fontSize=11;" vertex="1" parent="1">
          <mxGeometry x="224" y="640" width="60" height="60" as="geometry" />
        </mxCell>
        <mxCell id="DXjjxYE0g-5OhmQiskfD-38" value="&lt;span style=&quot;font-size: 11px;&quot;&gt;00000000&lt;/span&gt;" style="rounded=0;whiteSpace=wrap;html=1;fillColor=#f8cecc;strokeColor=#b85450;fontStyle=1;fontSize=11;" vertex="1" parent="1">
          <mxGeometry x="284" y="640" width="60" height="60" as="geometry" />
        </mxCell>
        <mxCell id="DXjjxYE0g-5OhmQiskfD-39" value="&lt;font style=&quot;font-size: 11px;&quot;&gt;00101000&lt;/font&gt;" style="rounded=0;whiteSpace=wrap;html=1;fillColor=#f8cecc;strokeColor=#b85450;fontStyle=1;fontSize=11;" vertex="1" parent="1">
          <mxGeometry x="344" y="640" width="60" height="60" as="geometry" />
        </mxCell>
        <mxCell id="DXjjxYE0g-5OhmQiskfD-43" value="&lt;font style=&quot;font-size: 11px;&quot;&gt;00101000&lt;/font&gt;" style="rounded=0;whiteSpace=wrap;html=1;fillColor=#f8cecc;strokeColor=#b85450;fontStyle=1;fontSize=11;" vertex="1" parent="1">
          <mxGeometry x="104" y="640" width="60" height="60" as="geometry" />
        </mxCell>
        <mxCell id="DXjjxYE0g-5OhmQiskfD-44" value="0X00" style="text;html=1;align=center;verticalAlign=middle;whiteSpace=wrap;rounded=0;fontColor=#990000;fontStyle=1" vertex="1" parent="1">
          <mxGeometry x="380" y="708.75" width="60" height="30" as="geometry" />
        </mxCell>
        <mxCell id="DXjjxYE0g-5OhmQiskfD-45" value="0X01" style="text;html=1;align=center;verticalAlign=middle;whiteSpace=wrap;rounded=0;fontColor=#990000;fontStyle=1" vertex="1" parent="1">
          <mxGeometry x="320" y="708.75" width="60" height="30" as="geometry" />
        </mxCell>
        <mxCell id="DXjjxYE0g-5OhmQiskfD-46" value="0X02" style="text;html=1;align=center;verticalAlign=middle;whiteSpace=wrap;rounded=0;fontColor=#990000;fontStyle=1" vertex="1" parent="1">
          <mxGeometry x="260" y="708.75" width="60" height="30" as="geometry" />
        </mxCell>
        <mxCell id="DXjjxYE0g-5OhmQiskfD-47" value="0X03" style="text;html=1;align=center;verticalAlign=middle;whiteSpace=wrap;rounded=0;fontColor=#990000;fontStyle=1" vertex="1" parent="1">
          <mxGeometry x="200" y="708.75" width="60" height="30" as="geometry" />
        </mxCell>
        <mxCell id="DXjjxYE0g-5OhmQiskfD-48" value="0X04" style="text;html=1;align=center;verticalAlign=middle;whiteSpace=wrap;rounded=0;fontColor=#990000;fontStyle=1" vertex="1" parent="1">
          <mxGeometry x="144" y="708.75" width="60" height="30" as="geometry" />
        </mxCell>
        <mxCell id="DXjjxYE0g-5OhmQiskfD-49" value="0X05" style="text;html=1;align=center;verticalAlign=middle;whiteSpace=wrap;rounded=0;fontColor=#990000;fontStyle=1" vertex="1" parent="1">
          <mxGeometry x="80" y="708.75" width="60" height="30" as="geometry" />
        </mxCell>
        <mxCell id="DXjjxYE0g-5OhmQiskfD-53" value="" style="endArrow=classic;startArrow=classic;html=1;rounded=0;entryX=0;entryY=0.5;entryDx=0;entryDy=0;" edge="1" parent="1">
          <mxGeometry width="50" height="50" relative="1" as="geometry">
            <mxPoint x="344" y="591.25" as="sourcePoint" />
            <mxPoint x="410" y="591.25" as="targetPoint" />
          </mxGeometry>
        </mxCell>
        <mxCell id="DXjjxYE0g-5OhmQiskfD-54" value="&lt;font style=&quot;font-size: 15px;&quot;&gt;&amp;nbsp;char a&amp;nbsp;&lt;/font&gt;" style="edgeLabel;html=1;align=center;verticalAlign=middle;resizable=0;points=[];" vertex="1" connectable="0" parent="DXjjxYE0g-5OhmQiskfD-53">
          <mxGeometry x="-0.0583" y="3" relative="1" as="geometry">
            <mxPoint y="1" as="offset" />
          </mxGeometry>
        </mxCell>
        <mxCell id="DXjjxYE0g-5OhmQiskfD-55" value="" style="endArrow=classic;startArrow=classic;html=1;rounded=0;entryX=0;entryY=0.5;entryDx=0;entryDy=0;exitX=1;exitY=0.5;exitDx=0;exitDy=0;" edge="1" parent="1">
          <mxGeometry width="50" height="50" relative="1" as="geometry">
            <mxPoint x="104" y="591.25" as="sourcePoint" />
            <mxPoint x="344" y="591.25" as="targetPoint" />
          </mxGeometry>
        </mxCell>
        <mxCell id="DXjjxYE0g-5OhmQiskfD-56" value="&lt;font style=&quot;font-size: 15px;&quot;&gt;&amp;nbsp;int b&amp;nbsp;&lt;/font&gt;" style="edgeLabel;html=1;align=center;verticalAlign=middle;resizable=0;points=[];" vertex="1" connectable="0" parent="DXjjxYE0g-5OhmQiskfD-55">
          <mxGeometry x="0.0167" y="1" relative="1" as="geometry">
            <mxPoint y="1" as="offset" />
          </mxGeometry>
        </mxCell>
        <mxCell id="DXjjxYE0g-5OhmQiskfD-58" value="&lt;font style=&quot;font-size: 15px;&quot;&gt;Byte 1&lt;/font&gt;" style="text;html=1;align=center;verticalAlign=middle;whiteSpace=wrap;rounded=0;" vertex="1" parent="1">
          <mxGeometry x="344" y="610" width="60" height="30" as="geometry" />
        </mxCell>
        <mxCell id="DXjjxYE0g-5OhmQiskfD-63" value="&lt;font style=&quot;font-size: 15px;&quot;&gt;Byte 5&lt;/font&gt;" style="text;html=1;align=center;verticalAlign=middle;whiteSpace=wrap;rounded=0;" vertex="1" parent="1">
          <mxGeometry x="105" y="610" width="60" height="30" as="geometry" />
        </mxCell>
        <mxCell id="DXjjxYE0g-5OhmQiskfD-64" value="&lt;font style=&quot;font-size: 15px;&quot;&gt;Byte 4&lt;/font&gt;" style="text;html=1;align=center;verticalAlign=middle;whiteSpace=wrap;rounded=0;" vertex="1" parent="1">
          <mxGeometry x="165" y="610" width="60" height="30" as="geometry" />
        </mxCell>
        <mxCell id="DXjjxYE0g-5OhmQiskfD-65" value="&lt;font style=&quot;font-size: 15px;&quot;&gt;Byte 3&lt;/font&gt;" style="text;html=1;align=center;verticalAlign=middle;whiteSpace=wrap;rounded=0;" vertex="1" parent="1">
          <mxGeometry x="224" y="610" width="60" height="30" as="geometry" />
        </mxCell>
        <mxCell id="DXjjxYE0g-5OhmQiskfD-66" value="&lt;font style=&quot;font-size: 15px;&quot;&gt;Byte 2&lt;/font&gt;" style="text;html=1;align=center;verticalAlign=middle;whiteSpace=wrap;rounded=0;" vertex="1" parent="1">
          <mxGeometry x="284" y="610" width="60" height="30" as="geometry" />
        </mxCell>
      </root>
    </mxGraphModel>
  </diagram>
</mxfile>
